<svg width="2205" height="660" viewBox="0 0 2205 660" fill="none" xmlns="http://www.w3.org/2000/svg">
<path fill-rule="evenodd" clip-rule="evenodd" d="M114.628 325.583C114.205 325.199 113.789 324.804 113.38 324.397L11.055 222.621C-3.62905 208.016 -3.69298 184.272 10.9122 169.588C25.5174 154.904 49.261 154.84 63.945 169.446L148.665 253.71L233.37 169.447C248.053 154.841 271.796 154.903 286.403 169.586C301.009 184.269 300.947 208.013 286.264 222.619L189.345 319.031C189.532 320.548 189.628 322.093 189.628 323.66V467.982C189.628 488.693 172.839 505.482 152.128 505.482C131.417 505.482 114.628 488.693 114.628 467.982V325.583Z" fill="#16325B"/>
<path d="M353.466 509C317.799 509 289.632 498.833 268.966 478.5C248.299 458.167 237.966 425.333 237.966 380C237.966 334.333 248.299 301.5 268.966 281.5C289.632 261.167 317.799 251 353.466 251C389.132 251 417.299 261.167 437.966 281.5C458.632 301.5 468.966 334.333 468.966 380C468.966 425.333 458.632 458.167 437.966 478.5C417.299 498.833 389.132 509 353.466 509ZM353.466 449C362.799 449 370.632 447.167 376.966 443.5C383.299 439.5 388.132 432.5 391.466 422.5C395.132 412.5 396.966 398.333 396.966 380C396.966 361.667 395.132 347.5 391.466 337.5C388.132 327.5 383.299 320.667 376.966 317C370.632 313 362.799 311 353.466 311C344.466 311 336.632 313 329.966 317C323.632 320.667 318.632 327.5 314.966 337.5C311.632 347.5 309.966 361.667 309.966 380C309.966 398.333 311.632 412.5 314.966 422.5C318.632 432.5 323.632 439.5 329.966 443.5C336.632 447.167 344.466 449 353.466 449ZM627.579 509C605.579 509 586.246 504.5 569.579 495.5C552.912 486.5 539.912 473.833 530.579 457.5C521.579 441.167 517.079 422.167 517.079 400.5V283.5C517.079 260.833 529.079 249.5 553.079 249.5C577.079 249.5 589.079 260.833 589.079 283.5V399.5C589.079 415.167 592.412 427.333 599.079 436C605.746 444.667 615.246 449 627.579 449C639.912 449 649.412 444.667 656.079 436C662.746 427.333 666.079 415.167 666.079 399.5V283.5C666.079 260.833 678.079 249.5 702.079 249.5C726.079 249.5 738.079 260.833 738.079 283.5V400.5C738.079 422.167 733.412 441.167 724.079 457.5C715.079 473.833 702.246 486.5 685.579 495.5C669.246 504.5 649.912 509 627.579 509Z" fill="#16325B"/>
<path d="M1169.97 509C1129.3 509 1099.13 497.333 1079.47 474C1059.8 450.333 1049.97 419.167 1049.97 380.5C1049.97 341.833 1059.8 310.667 1079.47 287C1099.13 263 1129.3 251 1169.97 251C1195.63 251 1214.3 253.667 1225.97 259C1237.97 264.333 1243.97 273.833 1243.97 287.5C1243.97 297.167 1241.3 304.167 1235.97 308.5C1230.63 312.833 1223.47 315 1214.47 315C1208.13 315 1203.13 314.5 1199.47 313.5C1195.8 312.5 1191.8 311.667 1187.47 311C1183.47 310 1177.13 309.5 1168.47 309.5C1156.8 309.5 1147.47 313 1140.47 320C1133.8 327 1128.97 336 1125.97 347C1123.3 357.667 1121.97 368.833 1121.97 380.5C1121.97 391.833 1122.97 403 1124.97 414C1127.3 424.667 1131.8 433.5 1138.47 440.5C1145.13 447.167 1155.3 450.5 1168.97 450.5C1181.63 450.5 1190.97 449.667 1196.97 448C1202.97 446 1208.8 445 1214.47 445C1223.47 445 1230.63 446.667 1235.97 450C1241.3 453 1243.97 459.333 1243.97 469C1243.97 482.667 1237.97 492.833 1225.97 499.5C1214.3 505.833 1195.63 509 1169.97 509ZM1396.53 509C1355.86 509 1325.69 497.333 1306.03 474C1286.36 450.333 1276.53 419.167 1276.53 380.5C1276.53 341.833 1286.36 310.667 1306.03 287C1325.69 263 1355.86 251 1396.53 251C1422.19 251 1440.86 253.667 1452.53 259C1464.53 264.333 1470.53 273.833 1470.53 287.5C1470.53 297.167 1467.86 304.167 1462.53 308.5C1457.2 312.833 1450.03 315 1441.03 315C1434.69 315 1429.69 314.5 1426.03 313.5C1422.36 312.5 1418.36 311.667 1414.03 311C1410.03 310 1403.69 309.5 1395.03 309.5C1383.36 309.5 1374.03 313 1367.03 320C1360.36 327 1355.53 336 1352.53 347C1349.86 357.667 1348.53 368.833 1348.53 380.5C1348.53 391.833 1349.53 403 1351.53 414C1353.86 424.667 1358.36 433.5 1365.03 440.5C1371.69 447.167 1381.86 450.5 1395.53 450.5C1408.19 450.5 1417.53 449.667 1423.53 448C1429.53 446 1435.36 445 1441.03 445C1450.03 445 1457.2 446.667 1462.53 450C1467.86 453 1470.53 459.333 1470.53 469C1470.53 482.667 1464.53 492.833 1452.53 499.5C1440.86 505.833 1422.19 509 1396.53 509ZM1634.58 509C1601.25 509 1575.08 503.5 1556.08 492.5C1537.41 481.5 1524.08 466.333 1516.08 447C1508.41 427.667 1504.58 405.5 1504.58 380.5C1504.58 334.5 1514.75 301.5 1535.08 281.5C1555.41 261.167 1582.75 251 1617.08 251C1637.75 251 1656.08 254.5 1672.08 261.5C1688.08 268.5 1700.58 278.5 1709.58 291.5C1718.58 304.167 1723.08 319.667 1723.08 338C1723.08 391.333 1685.08 418 1609.08 418H1580.08C1582.75 428.333 1587.08 436.5 1593.08 442.5C1599.41 448.167 1610.41 451 1626.08 451C1634.75 451 1641.75 450.5 1647.08 449.5C1652.41 448.5 1657.41 447.5 1662.08 446.5C1667.08 445.5 1672.75 445 1679.08 445C1688.08 445 1695.25 446.667 1700.58 450C1705.91 453 1708.58 459.333 1708.58 469C1708.58 482.667 1702.58 492.833 1690.58 499.5C1678.91 505.833 1660.25 509 1634.58 509ZM1576.58 381C1579.25 377.333 1582.25 375 1585.58 374C1588.91 372.667 1594.08 372 1601.08 372C1620.75 372 1634.25 370.167 1641.58 366.5C1649.25 362.5 1653.08 355.5 1653.08 345.5C1653.08 332.833 1649.58 323.167 1642.58 316.5C1635.58 309.5 1626.75 306 1616.08 306C1603.75 306 1594.08 311.167 1587.08 321.5C1580.08 331.833 1576.58 351.667 1576.58 381ZM1853.5 509C1790.83 509 1759.5 495.167 1759.5 467.5C1759.5 458.833 1761.83 452 1766.5 447C1771.16 442 1777.33 439.5 1785 439.5C1788.33 439.5 1791.5 440 1794.5 441C1797.83 441.667 1804.16 443.5 1813.5 446.5C1817.5 447.833 1822.83 449.167 1829.5 450.5C1836.16 451.833 1842.66 452.5 1849 452.5C1861 452.5 1869.5 451 1874.5 448C1879.5 445 1882 440 1882 433C1882 427.333 1880.66 423 1878 420C1875.33 416.667 1869.66 413.5 1861 410.5C1852.33 407.5 1838.83 403.333 1820.5 398C1803.83 393.333 1790.33 385 1780 373C1770 360.667 1765 345.5 1765 327.5C1765 302.167 1774.16 282.833 1792.5 269.5C1810.83 256.167 1836 249.5 1868 249.5C1892 249.5 1910.83 252.833 1924.5 259.5C1938.16 266.167 1945 275.833 1945 288.5C1945 296.5 1942.66 303.167 1938 308.5C1933.33 313.833 1927 316.5 1919 316.5C1915.66 316.5 1911.66 316 1907 315C1902.66 314 1897.33 312.667 1891 311C1886.33 309.333 1881.33 308 1876 307C1871 306 1865.66 305.5 1860 305.5C1844 305.5 1836 311.167 1836 322.5C1836 329.167 1839.16 334.833 1845.5 339.5C1851.83 343.833 1864 348.667 1882 354C1906.66 361.333 1924.83 371.167 1936.5 383.5C1948.16 395.5 1954 411.5 1954 431.5C1954 454.833 1945 473.667 1927 488C1909.33 502 1884.83 509 1853.5 509ZM2083.97 509C2021.3 509 1989.97 495.167 1989.97 467.5C1989.97 458.833 1992.3 452 1996.97 447C2001.63 442 2007.8 439.5 2015.47 439.5C2018.8 439.5 2021.97 440 2024.97 441C2028.3 441.667 2034.63 443.5 2043.97 446.5C2047.97 447.833 2053.3 449.167 2059.97 450.5C2066.63 451.833 2073.13 452.5 2079.47 452.5C2091.47 452.5 2099.97 451 2104.97 448C2109.97 445 2112.47 440 2112.47 433C2112.47 427.333 2111.13 423 2108.47 420C2105.8 416.667 2100.13 413.5 2091.47 410.5C2082.8 407.5 2069.3 403.333 2050.97 398C2034.3 393.333 2020.8 385 2010.47 373C2000.47 360.667 1995.47 345.5 1995.47 327.5C1995.47 302.167 2004.63 282.833 2022.97 269.5C2041.3 256.167 2066.47 249.5 2098.47 249.5C2122.47 249.5 2141.3 252.833 2154.97 259.5C2168.63 266.167 2175.47 275.833 2175.47 288.5C2175.47 296.5 2173.13 303.167 2168.47 308.5C2163.8 313.833 2157.47 316.5 2149.47 316.5C2146.13 316.5 2142.13 316 2137.47 315C2133.13 314 2127.8 312.667 2121.47 311C2116.8 309.333 2111.8 308 2106.47 307C2101.47 306 2096.13 305.5 2090.47 305.5C2074.47 305.5 2066.47 311.167 2066.47 322.5C2066.47 329.167 2069.63 334.833 2075.97 339.5C2082.3 343.833 2094.47 348.667 2112.47 354C2137.13 361.333 2155.3 371.167 2166.97 383.5C2178.63 395.5 2184.47 411.5 2184.47 431.5C2184.47 454.833 2175.47 473.667 2157.47 488C2139.8 502 2115.3 509 2083.97 509Z" fill="#008DDA"/>
<path fill-rule="evenodd" clip-rule="evenodd" d="M767.567 457.259C760.484 476.72 770.518 498.24 789.98 505.323C809.442 512.406 830.961 502.372 838.044 482.91L900.942 310.099L963.94 483.183C971.023 502.645 992.542 512.679 1012 505.596C1031.47 498.512 1041.5 476.993 1034.42 457.531L936.965 189.786C932.163 176.591 920.723 167.729 907.788 165.599C889.863 161.901 871.464 171.804 865.018 189.514L767.567 457.259Z" fill="#008DDA"/>
<path d="M56.4659 103.608C83.4659 82.7743 157.866 53.6076 239.466 103.608M95.9659 150.108C113.966 136 159.366 126.108 194.966 150.108" stroke="#008DDA" stroke-width="25" stroke-linecap="round"/>
<circle cx="144.966" cy="191.608" r="21" fill="#008DDA" stroke="#008DDA"/>
</svg>
