<svg width="284" height="277" viewBox="0 0 284 277" fill="none" xmlns="http://www.w3.org/2000/svg">
<g clip-path="url(#clip0_1_6)">
<path d="M275.034 259.343H5.21951C5.19068 259.343 5.16214 259.337 5.13551 259.326C5.10887 259.315 5.08468 259.298 5.06429 259.278C5.04391 259.257 5.02774 259.232 5.01671 259.205C5.00568 259.178 5 259.149 5 259.119C5 259.09 5.00568 259.061 5.01671 259.033C5.02774 259.006 5.04391 258.981 5.06429 258.961C5.08468 258.94 5.10887 258.923 5.13551 258.912C5.16214 258.901 5.19068 258.895 5.21951 258.895H275.033C275.091 258.895 275.147 258.919 275.188 258.961C275.23 259.003 275.253 259.06 275.253 259.119C275.253 259.179 275.23 259.236 275.188 259.278C275.147 259.32 275.091 259.343 275.033 259.343H275.034Z" fill="#292A2E"/>
<g opacity="0.65">
<path d="M275.034 259.343H5.21951C5.19068 259.343 5.16214 259.337 5.13551 259.326C5.10887 259.315 5.08468 259.298 5.06429 259.278C5.04391 259.257 5.02774 259.232 5.01671 259.205C5.00568 259.178 5 259.149 5 259.119C5 259.09 5.00568 259.061 5.01671 259.033C5.02774 259.006 5.04391 258.981 5.06429 258.961C5.08468 258.94 5.10887 258.923 5.13551 258.912C5.16214 258.901 5.19068 258.895 5.21951 258.895H275.033C275.091 258.895 275.147 258.919 275.188 258.961C275.23 259.003 275.253 259.06 275.253 259.119C275.253 259.179 275.23 259.236 275.188 259.278C275.147 259.32 275.091 259.343 275.033 259.343H275.034Z" fill="#292A2E"/>
</g>
<path d="M24.0041 258.949L23.3882 258.828L33.014 161.135L33.6299 161.256L24.0041 258.949Z" fill="#494949"/>
<path d="M59.8461 258.949L59.2302 258.828L68.856 161.135L69.4715 161.256L59.8461 258.949Z" fill="#494949"/>
<path d="M139.072 258.949L139.688 258.828L130.063 161.135L129.447 161.256L139.072 258.949Z" fill="#494949"/>
<path d="M103.231 258.949L103.846 258.828L94.2208 161.135L93.605 161.256L103.231 258.949Z" fill="#494949"/>
<path d="M90.4651 118.141L89.8435 118.226L95.4666 161.239L96.0883 161.154L90.4651 118.141Z" fill="#494949"/>
<path d="M25.9219 118.14L25.3003 118.225L30.9234 161.239L31.5451 161.154L25.9219 118.14Z" fill="#494949"/>
<path d="M96.0346 158.046H32.9039C31.2006 158.046 29.8198 159.456 29.8198 161.196V161.196C29.8198 162.936 31.2006 164.346 32.9039 164.346H96.0346C97.7379 164.346 99.1187 162.936 99.1187 161.196V161.196C99.1187 159.456 97.7379 158.046 96.0346 158.046Z" fill="#292A2E"/>
<path opacity="0.8" d="M96.0346 158.046H32.9039C31.2006 158.046 29.8198 159.456 29.8198 161.196V161.196C29.8198 162.936 31.2006 164.346 32.9039 164.346H96.0346C97.7379 164.346 99.1187 162.936 99.1187 161.196V161.196C99.1187 159.456 97.7379 158.046 96.0346 158.046Z" fill="white"/>
<path d="M96.0333 164.666H32.9039C32.0084 164.657 31.1525 164.288 30.5223 163.638C29.8921 162.988 29.5386 162.111 29.5386 161.196C29.5386 160.281 29.8921 159.404 30.5223 158.754C31.1525 158.104 32.0084 157.734 32.9039 157.726H96.0333C96.9289 157.734 97.7848 158.104 98.415 158.754C99.0452 159.404 99.3987 160.281 99.3987 161.196C99.3987 162.111 99.0452 162.988 98.415 163.638C97.7848 164.288 96.9289 164.657 96.0333 164.666ZM32.9039 158.366C32.1742 158.374 31.477 158.676 30.9638 159.206C30.4505 159.735 30.1626 160.451 30.1626 161.196C30.1626 161.941 30.4505 162.656 30.9638 163.186C31.477 163.716 32.1742 164.018 32.9039 164.026H96.0333C96.7631 164.018 97.4603 163.716 97.9735 163.186C98.4868 162.656 98.7747 161.941 98.7747 161.196C98.7747 160.451 98.4868 159.735 97.9735 159.206C97.4603 158.676 96.7631 158.374 96.0333 158.366H32.9039Z" fill="#292A2E"/>
<path d="M130.684 158.046H67.5534C65.8501 158.046 64.4693 159.456 64.4693 161.196V161.196C64.4693 162.936 65.8501 164.346 67.5534 164.346H130.684C132.387 164.346 133.768 162.936 133.768 161.196V161.196C133.768 159.456 132.387 158.046 130.684 158.046Z" fill="white"/>
<path d="M130.684 164.666H67.5537C67.1047 164.671 66.6593 164.584 66.2433 164.412C65.8273 164.239 65.4488 163.984 65.1299 163.662C64.8109 163.339 64.5576 162.955 64.3848 162.532C64.212 162.108 64.123 161.654 64.123 161.196C64.123 160.737 64.212 160.283 64.3848 159.86C64.5576 159.437 64.8109 159.053 65.1299 158.73C65.4488 158.408 65.8273 158.153 66.2433 157.98C66.6593 157.808 67.1047 157.721 67.5537 157.726H130.684C131.133 157.721 131.579 157.808 131.995 157.98C132.411 158.153 132.789 158.408 133.108 158.73C133.427 159.053 133.68 159.437 133.853 159.86C134.026 160.283 134.115 160.737 134.115 161.196C134.115 161.654 134.026 162.108 133.853 162.532C133.68 162.955 133.427 163.339 133.108 163.662C132.789 163.984 132.411 164.239 131.995 164.412C131.579 164.584 131.133 164.671 130.684 164.666ZM67.5537 158.366C67.1873 158.362 66.8239 158.432 66.4843 158.573C66.1447 158.713 65.8358 158.921 65.5754 159.184C65.3149 159.447 65.1082 159.761 64.9671 160.106C64.826 160.451 64.7534 160.822 64.7534 161.196C64.7534 161.57 64.826 161.941 64.9671 162.286C65.1082 162.631 65.3149 162.944 65.5754 163.208C65.8358 163.471 66.1447 163.679 66.4843 163.819C66.8239 163.959 67.1873 164.03 67.5537 164.026H130.684C131.051 164.03 131.414 163.959 131.754 163.819C132.093 163.679 132.402 163.471 132.663 163.208C132.923 162.944 133.13 162.631 133.271 162.286C133.412 161.941 133.485 161.57 133.485 161.196C133.485 160.822 133.412 160.451 133.271 160.106C133.13 159.761 132.923 159.447 132.663 159.184C132.402 158.921 132.093 158.713 131.754 158.573C131.414 158.432 131.051 158.362 130.684 158.366H67.5537Z" fill="#292A2E"/>
<path d="M87.0068 118.182H25.7806C24.7796 118.182 23.8128 117.81 23.0607 117.136C22.3086 116.461 21.8225 115.53 21.6933 114.516L17.6434 82.7517C17.5676 82.1579 17.6168 81.5545 17.7876 80.9817C17.9583 80.4089 18.2468 79.8799 18.6337 79.43C19.0205 78.9801 19.4969 78.6196 20.031 78.3727C20.5651 78.1258 21.1447 77.9981 21.7309 77.9982H82.9569C83.9579 77.9982 84.9247 78.3702 85.6768 79.0448C86.4289 79.7195 86.9149 80.6506 87.0442 81.6643L91.0941 113.429C91.1698 114.022 91.1206 114.626 90.9498 115.199C90.7791 115.771 90.4906 116.3 90.1038 116.75C89.717 117.2 89.2406 117.561 88.7066 117.807C88.1725 118.054 87.5931 118.182 87.0068 118.182Z" fill="#292A2E"/>
<path opacity="0.8" d="M87.0068 118.182H25.7806C24.7796 118.182 23.8128 117.81 23.0607 117.136C22.3086 116.461 21.8225 115.53 21.6933 114.516L17.6434 82.7517C17.5676 82.1579 17.6168 81.5545 17.7876 80.9817C17.9583 80.4089 18.2468 79.8799 18.6337 79.43C19.0205 78.9801 19.4969 78.6196 20.031 78.3727C20.5651 78.1258 21.1447 77.9981 21.7309 77.9982H82.9569C83.9579 77.9982 84.9247 78.3702 85.6768 79.0448C86.4289 79.7195 86.9149 80.6506 87.0442 81.6643L91.0941 113.429C91.1698 114.022 91.1206 114.626 90.9498 115.199C90.7791 115.771 90.4906 116.3 90.1038 116.75C89.717 117.2 89.2406 117.561 88.7066 117.807C88.1725 118.054 87.5931 118.182 87.0068 118.182Z" fill="white"/>
<path d="M87.0068 118.502H25.7806C24.7042 118.5 23.6652 118.099 22.8564 117.374C22.0476 116.648 21.5238 115.648 21.3822 114.558L17.3323 82.7936C17.2508 82.1547 17.3037 81.5054 17.4875 80.8891C17.6712 80.2727 17.9816 79.7034 18.3979 79.2193C18.8142 78.7352 19.3268 78.3474 19.9015 78.0817C20.4762 77.816 21.0998 77.6786 21.7306 77.6786H82.9569C84.0335 77.6811 85.0726 78.0823 85.8815 78.8079C86.6904 79.5334 87.2141 80.534 87.3555 81.624L91.4055 113.388C91.4869 114.027 91.4339 114.676 91.2501 115.293C91.0663 115.909 90.7559 116.478 90.3396 116.962C89.9233 117.446 89.4107 117.834 88.836 118.1C88.2613 118.366 87.6377 118.503 87.0068 118.503V118.502ZM21.7306 78.3185C21.189 78.3185 20.6536 78.4365 20.1602 78.6647C19.6667 78.8928 19.2266 79.2258 18.8692 79.6415C18.5118 80.0572 18.2454 80.5459 18.0876 81.0751C17.9299 81.6043 17.8845 82.1618 17.9545 82.7104L22.0041 114.475C22.1256 115.411 22.5753 116.27 23.2698 116.892C23.9642 117.515 24.8563 117.86 25.7806 117.862H87.0068C87.5486 117.862 88.0841 117.744 88.5776 117.516C89.0711 117.288 89.5113 116.954 89.8687 116.539C90.2262 116.123 90.4926 115.634 90.6503 115.105C90.8081 114.575 90.8534 114.018 90.7833 113.469L86.7334 81.705C86.6119 80.7693 86.1621 79.9104 85.4677 79.2876C84.7732 78.6649 83.8811 78.3205 82.9569 78.3185H21.7306Z" fill="#292A2E"/>
<path d="M90.4691 118.182H29.2428C28.2418 118.182 27.275 117.81 26.5228 117.136C25.7707 116.461 25.2846 115.53 25.1553 114.516L21.1053 82.7517C21.0297 82.1579 21.0789 81.5545 21.2497 80.9818C21.4206 80.409 21.709 79.88 22.0959 79.4302C22.4827 78.9803 22.9591 78.6199 23.4931 78.3729C24.0272 78.126 24.6067 77.9983 25.1929 77.9982H86.4192C87.4202 77.9982 88.387 78.3702 89.1392 79.0448C89.8913 79.7194 90.3774 80.6505 90.5067 81.6643L94.5567 113.429C94.6323 114.022 94.5831 114.626 94.4123 115.199C94.2414 115.771 93.953 116.3 93.5662 116.75C93.1793 117.2 92.7029 117.561 92.1689 117.807C91.6348 118.054 91.0553 118.182 90.4691 118.182Z" fill="white"/>
<path d="M90.4691 118.502H29.2428C28.1664 118.5 27.1274 118.099 26.3186 117.374C25.5098 116.648 24.986 115.648 24.8445 114.558L20.7946 82.7936C20.7131 82.1547 20.766 81.5054 20.9497 80.8891C21.1335 80.2727 21.4439 79.7034 21.8602 79.2193C22.2764 78.7352 22.789 78.3474 23.3638 78.0817C23.9385 77.816 24.5621 77.6786 25.1929 77.6786H86.4192C87.4957 77.681 88.5348 78.0822 89.3437 78.8078C90.1525 79.5334 90.6762 80.534 90.8175 81.624L94.8674 113.388C94.9489 114.027 94.896 114.676 94.7123 115.293C94.5285 115.909 94.2181 116.478 93.8019 116.962C93.3856 117.447 92.873 117.834 92.2983 118.1C91.7235 118.366 91.1 118.503 90.4691 118.503V118.502ZM25.1929 78.3185C24.6513 78.3185 24.1158 78.4365 23.6224 78.6647C23.129 78.8928 22.6888 79.2258 22.3314 79.6415C21.974 80.0571 21.7075 80.5459 21.5497 81.0751C21.3919 81.6043 21.3465 82.1618 21.4164 82.7104L25.4664 114.475C25.5877 115.411 26.0374 116.27 26.7319 116.893C27.4264 117.515 28.3186 117.86 29.2428 117.862H90.4691C91.0109 117.862 91.5464 117.744 92.04 117.516C92.5335 117.288 92.9737 116.955 93.3312 116.539C93.6887 116.123 93.9552 115.634 94.1129 115.105C94.2706 114.575 94.316 114.018 94.2459 113.469L90.196 81.705C90.0746 80.7692 89.6249 79.9101 88.9305 79.2871C88.236 78.6642 87.3438 78.3197 86.4195 78.3175L25.1929 78.3185Z" fill="#292A2E"/>
<path d="M176.819 242.61C176.819 242.61 178.5 251.512 186.661 252.007C194.821 252.503 193.051 259.143 193.051 259.143H161.867V243.231L176.819 242.61Z" fill="black"/>
<path d="M117.493 236.99C117.493 236.99 115.154 245.735 122.262 249.859C129.37 253.984 124.913 259.143 124.913 259.143L96.9311 245.083L103.808 230.805L117.493 236.99Z" fill="black"/>
<path d="M92.3829 29.5743C92.3829 29.5743 96.4513 26.4379 97.4595 19.2183C98.24 13.6283 93.1913 17.2496 93.1913 17.2496C93.1913 17.2496 93.715 13.2193 90.8395 13.619C87.9639 14.0187 86.3552 18.2533 86.3552 18.2533" fill="#0C0C0C"/>
<path d="M75.979 14.0908C75.979 14.0908 61.7125 15.6531 66.8697 35.3971L68.1322 35.4833L70.6948 35.6588" fill="#0C0C0C"/>
<path d="M89.9934 56.0167C89.9307 56.0084 89.2345 67.8027 75.8175 66.7753C66.5292 66.0649 63.2174 56.0001 63.0045 56.0001C64.0061 55.7826 65.2435 55.4528 65.7355 55.3394C66.8074 55.0852 67.7781 54.5038 68.5186 53.6724C69.259 52.841 69.734 51.7991 69.8805 50.6852C70.1523 49.0134 69.6923 40.4596 69.8331 38.7679L84.0908 42.0184C83.8917 45.591 82.4972 53.8735 87.3834 55.3394C88.1978 55.5818 89.0737 55.8047 89.9934 56.0167Z" fill="#E98862"/>
<path opacity="0.52" d="M84.2912 51.9544C84.0679 51.2194 83.924 50.4616 83.8622 49.6946C83.7057 47.9442 83.7373 46.1815 83.9563 44.438C81.0584 44.0385 78.3283 42.8169 76.0762 40.9118C75.8116 41.9104 74.3556 46.2738 74.7592 47.2231C75.5196 49.0169 79.0998 51.9544 84.2912 51.9544Z" fill="#0C0C0C"/>
<path d="M81.3485 49.62C75.7235 49.1047 68.9911 45.475 68.8942 37.6768L68.8064 30.6408C68.7095 22.8425 72.6409 16.4688 79.8302 16.3756C87.0191 16.2821 92.4713 22.5341 92.5682 30.332L92.6071 33.447C92.6021 34.5168 92.5258 35.585 92.3785 36.6442C92.0097 39.4466 91.4378 43.7072 89.576 46.5896C87.8174 49.3103 84.9419 49.9492 81.3485 49.62Z" fill="#E98862"/>
<path d="M83.9582 42.4921C85.1189 42.5458 86.2758 42.3201 87.3355 41.8333C87.3574 41.8237 87.3772 41.8098 87.3939 41.7925C87.4105 41.7751 87.4237 41.7545 87.4326 41.7319C87.4415 41.7094 87.4459 41.6852 87.4456 41.6609C87.4454 41.6366 87.4405 41.6125 87.4311 41.5902C87.4218 41.5678 87.4082 41.5475 87.3912 41.5305C87.3741 41.5135 87.354 41.5001 87.3319 41.491C87.3098 41.4819 87.2862 41.4774 87.2624 41.4776C87.2385 41.4779 87.215 41.4829 87.1931 41.4925C84.9102 42.4869 82.8371 42.3412 81.1983 41.0713C81.1652 41.0446 81.1308 41.0197 81.0951 40.9967C81.054 40.9772 81.0071 40.9742 80.9639 40.9882C80.9206 41.0023 80.884 41.0323 80.8614 41.0725C80.8388 41.1127 80.8317 41.1601 80.8416 41.2054C80.8515 41.2506 80.8776 41.2904 80.9148 41.317C80.928 41.3253 80.949 41.3423 80.9776 41.3657C81.8391 42.0359 82.877 42.4281 83.9582 42.4921Z" fill="#0C0C0C"/>
<path d="M83.9039 44.2488C84.1136 44.2621 84.3241 44.257 84.533 44.2334C84.5808 44.2282 84.6246 44.2038 84.6549 44.1656C84.6851 44.1274 84.6992 44.0785 84.6942 44.0297C84.6891 43.9808 84.6652 43.9361 84.6278 43.9052C84.5904 43.8743 84.5425 43.8599 84.4947 43.8651C83.2382 44.0015 82.6386 43.4135 82.6132 43.3882C82.5789 43.355 82.5332 43.3368 82.486 43.3375C82.4387 43.3381 82.3936 43.3576 82.3601 43.3917C82.3267 43.4258 82.3076 43.4719 82.3069 43.5202C82.3062 43.5684 82.324 43.6151 82.3564 43.6502C82.7891 44.0261 83.3359 44.2376 83.9039 44.2488Z" fill="#0C0C0C"/>
<path d="M90.1941 34.9465C90.6832 34.9465 91.0797 34.5416 91.0797 34.042C91.0797 33.5425 90.6832 33.1376 90.1941 33.1376C89.705 33.1376 89.3085 33.5425 89.3085 34.042C89.3085 34.5416 89.705 34.9465 90.1941 34.9465Z" fill="#0C0C0C"/>
<path d="M81.5429 34.3921C82.032 34.3921 82.4285 33.9872 82.4285 33.4877C82.4285 32.9882 82.032 32.5832 81.5429 32.5832C81.0539 32.5832 80.6574 32.9882 80.6574 33.4877C80.6574 33.9872 81.0539 34.3921 81.5429 34.3921Z" fill="#0C0C0C"/>
<path d="M69.3703 40.0468C67.1855 40.0753 65.3849 37.7111 65.3564 35.4797C65.3279 33.2484 67.0842 31.9952 69.269 31.9667L70.4132 33.447L71.248 40.0225L69.3703 40.0468Z" fill="#E98862"/>
<path d="M71.5425 36.4614C71.5425 36.4614 72.2803 25.4271 75.5563 24.7459C77.7382 24.2921 83.0293 27.4528 87.93 26.4981C90.0743 26.0817 92.1098 26.6227 92.3167 27.6568C92.3986 28.0665 93.7345 22.1802 90.3769 17.7144C87.7036 14.1594 78.9553 13.1537 74.9753 14.3195C63.955 17.5485 68.818 32.4526 68.818 32.4526L69.3094 36.2564L71.5425 36.4614Z" fill="#0C0C0C"/>
<path d="M85.2774 39.888C85.2821 39.8883 85.2868 39.8883 85.2915 39.888C85.9955 39.8806 87.1755 39.7884 87.1708 39.2503C87.1661 38.8045 85.9243 34.0059 85.7823 33.4601C85.7666 33.4176 85.736 33.3825 85.6965 33.3617C85.6569 33.3409 85.6112 33.3359 85.5682 33.3476C85.5252 33.3593 85.488 33.3869 85.4638 33.425C85.4397 33.4632 85.4302 33.5091 85.4373 33.554C85.9889 35.6793 86.8105 38.9512 86.814 39.2548C86.7459 39.3829 86.0187 39.5145 85.2896 39.5222C85.2437 39.5232 85.1998 39.5422 85.1672 39.5753C85.1345 39.6084 85.1156 39.653 85.1142 39.6999C85.1128 39.7469 85.1292 39.7926 85.1598 39.8275C85.1905 39.8625 85.2332 39.8842 85.279 39.888H85.2774Z" fill="#0C0C0C"/>
<path d="M87.6807 29.1381C88.4206 28.9301 89.2018 28.9301 89.9417 29.1381C90.3052 29.2378 90.6519 29.3929 90.9702 29.598C91.2849 29.7988 91.5735 30.0394 91.8291 30.3141C91.8781 30.3626 91.9066 30.4287 91.9084 30.4983C91.9102 30.568 91.8853 30.6356 91.8389 30.6867C91.7926 30.7377 91.7284 30.7683 91.6603 30.7717C91.5922 30.7751 91.5255 30.7511 91.4745 30.7048L91.4585 30.6908C91.2217 30.467 90.9583 30.2745 90.6745 30.1178C90.3961 29.962 90.0961 29.8502 89.7849 29.7863C89.1722 29.6548 88.5364 29.691 87.9419 29.8914L87.9169 29.9003C87.8188 29.9357 87.7109 29.9299 87.617 29.8841C87.5231 29.8383 87.4509 29.7563 87.4162 29.6561C87.3815 29.5559 87.3872 29.4458 87.4321 29.3499C87.4769 29.254 87.5572 29.1802 87.6553 29.1448L87.6807 29.1381Z" fill="#0C0C0C"/>
<path d="M82.4414 29.5919C81.8784 29.3125 81.2531 29.19 80.6289 29.2367C80.312 29.2578 80.0001 29.3277 79.7038 29.4443C79.4025 29.5611 79.1168 29.716 78.8533 29.9055L78.8364 29.917C78.7799 29.954 78.7115 29.9674 78.6455 29.9543C78.5796 29.9411 78.5211 29.9026 78.4823 29.8466C78.4435 29.7906 78.4272 29.7215 78.437 29.6536C78.4468 29.5857 78.4818 29.5243 78.5347 29.4821C78.8241 29.2446 79.1415 29.0454 79.4796 28.8889C79.8219 28.7292 80.1857 28.6228 80.5589 28.5731C80.9327 28.5195 81.3119 28.5185 81.6859 28.5702C82.0698 28.619 82.445 28.7233 82.8001 28.88C82.8958 28.9224 82.971 29.002 83.0092 29.1011C83.0474 29.2002 83.0455 29.3107 83.0039 29.4084C82.9624 29.5061 82.8845 29.5829 82.7874 29.6219C82.6904 29.661 82.5822 29.659 82.4865 29.6166C82.4793 29.6134 82.4718 29.6098 82.4649 29.606L82.4414 29.5919Z" fill="#0C0C0C"/>
<path d="M86.6279 21.5419C88.245 21.1968 89.1528 18.9465 88.6555 16.5155C88.1583 14.0846 86.4442 12.3937 84.8271 12.7388C83.21 13.0839 82.3022 15.3342 82.7994 17.7651C83.2967 20.1961 85.0108 21.887 86.6279 21.5419Z" fill="#0C0C0C"/>
<path d="M100.162 234.52L123.759 158.491H80.986C72.3938 158.491 68.8121 151.049 68.8121 142.275C68.8121 133.5 77.2588 125.808 85.8503 125.808H143.578C148.818 125.808 154.694 129.081 157.57 133.555C160.447 138.029 159.669 144.962 157.585 149.873L119.798 243.606" fill="#262626"/>
<path opacity="0.8" d="M100.162 234.52L123.759 158.491H80.986C72.3938 158.491 68.8121 151.049 68.8121 142.275C68.8121 133.5 77.2588 125.808 85.8503 125.808H143.578C148.818 125.808 154.694 129.081 157.57 133.555C160.447 138.029 159.669 144.962 157.585 149.873L119.798 243.606" fill="#0A0A0A"/>
<path d="M160.074 250.877L120.618 158.491L68.8115 158.487C56.6723 157.515 51.1128 150.721 51.2897 141.948C51.464 133.286 55.7582 124.731 64.2008 124.731H134.027C140.274 124.862 145.188 131.912 147.506 137.838L180.306 245.221" fill="#262626"/>
<path d="M47.7562 124.837C47.7562 124.837 45.4554 140.161 49.1024 148.68C53.6553 159.317 70.7231 158.488 70.7231 158.488L69.7613 124.732L47.7562 124.837Z" fill="#262626"/>
<path d="M148.99 124.535L112.395 116.791C110.87 116.468 109.449 115.758 108.265 114.725C107.08 113.693 106.169 112.373 105.616 110.885L91.223 72.1478C90.7847 70.9852 90.5756 69.7456 90.6078 68.5003C90.64 67.255 90.9127 66.0284 91.4104 64.891C91.9081 63.7536 92.6209 62.7279 93.5079 61.8727C94.3948 61.0175 95.4385 60.3498 96.5789 59.9077C97.7193 59.4657 98.934 59.2582 100.153 59.2971C101.372 59.3359 102.572 59.6204 103.683 60.1342C104.794 60.6479 105.795 61.3809 106.628 62.2909C107.461 63.2009 108.11 64.27 108.537 65.4369L121.128 99.3215L152.749 106.013C152.749 106.013 149.625 124.67 148.99 124.535Z" fill="#16325B"/>
<path d="M106.664 81.9865C106.241 87.0574 103.246 118.693 102.838 124.939H47.7803C47.4639 119.305 46.0434 94.6731 44.8439 83.6558C43.6987 73.1442 42.0935 68.3606 43.4124 65.0939C45.7386 59.3325 53.1429 56.7595 58.1571 56.0664C61.2187 55.643 65.8236 55.3394 65.8236 55.3394C65.8236 55.3394 66.2137 63.3951 75.5109 63.8435C88.1668 64.452 87.3217 55.3394 87.3844 55.3394C89.4346 55.3394 100.595 56.8623 103.386 58.7198C107.327 61.3438 108.492 64.9193 108.538 68.2046C108.591 71.987 107.143 76.2341 106.664 81.9865Z" fill="#16325B"/>
<path d="M104.5 107.835H104.487C104.466 107.833 104.446 107.827 104.428 107.817C104.41 107.808 104.393 107.795 104.38 107.778C104.367 107.762 104.357 107.744 104.351 107.724C104.344 107.704 104.342 107.683 104.344 107.662L105.773 90.1256C105.774 90.1044 105.779 90.0837 105.789 90.0648C105.798 90.0458 105.811 90.029 105.827 90.0153C105.842 90.0016 105.861 89.9913 105.881 89.9851C105.9 89.9789 105.921 89.9769 105.942 89.9792C105.962 89.9809 105.982 89.9868 106.001 89.9964C106.019 90.006 106.035 90.0193 106.049 90.0353C106.062 90.0514 106.072 90.07 106.078 90.09C106.085 90.1101 106.087 90.1312 106.085 90.1521L104.656 107.688C104.653 107.728 104.635 107.765 104.606 107.792C104.577 107.819 104.539 107.834 104.5 107.835Z" fill="#0C0C0C"/>
<path d="M113.352 121.461L125.432 83.5334C125.644 82.8669 126.058 82.2862 126.613 81.8743C127.168 81.4625 127.837 81.2406 128.523 81.2406H177.741C178.254 81.2406 178.76 81.3646 179.217 81.6025C179.674 81.8404 180.069 82.1855 180.371 82.6095C180.672 83.0334 180.871 83.5243 180.951 84.0419C181.031 84.5594 180.99 85.089 180.832 85.5873L168.751 123.515C168.539 124.181 168.126 124.762 167.57 125.174C167.015 125.586 166.346 125.807 165.66 125.808H116.443C115.93 125.808 115.424 125.684 114.967 125.446C114.51 125.208 114.114 124.863 113.813 124.439C113.511 124.015 113.312 123.524 113.232 123.006C113.152 122.489 113.193 121.959 113.352 121.461Z" fill="#292A2E"/>
<path opacity="0.2" d="M113.352 121.461L125.432 83.5334C125.644 82.8669 126.058 82.2862 126.613 81.8743C127.168 81.4625 127.837 81.2406 128.523 81.2406H177.741C178.254 81.2406 178.76 81.3646 179.217 81.6025C179.674 81.8404 180.069 82.1855 180.371 82.6095C180.672 83.0334 180.871 83.5243 180.951 84.0419C181.031 84.5594 180.99 85.089 180.832 85.5873L168.751 123.515C168.539 124.181 168.126 124.762 167.57 125.174C167.015 125.586 166.346 125.807 165.66 125.808H116.443C115.93 125.808 115.424 125.684 114.967 125.446C114.51 125.208 114.114 124.863 113.813 124.439C113.511 124.015 113.312 123.524 113.232 123.006C113.152 122.489 113.193 121.959 113.352 121.461Z" fill="white"/>
<path d="M123.206 122.732H90.26C89.439 122.732 88.7736 123.412 88.7736 124.25V124.289C88.7736 125.128 89.439 125.808 90.26 125.808H123.206C124.027 125.808 124.693 125.128 124.693 124.289V124.25C124.693 123.412 124.027 122.732 123.206 122.732Z" fill="#292A2E"/>
<path opacity="0.2" d="M123.206 122.732H90.26C89.439 122.732 88.7736 123.412 88.7736 124.25V124.289C88.7736 125.128 89.439 125.808 90.26 125.808H123.206C124.027 125.808 124.693 125.128 124.693 124.289V124.25C124.693 123.412 124.027 122.732 123.206 122.732Z" fill="white"/>
<path d="M147.092 110.646C149.942 110.646 152.254 108.286 152.254 105.374C152.254 102.463 149.942 100.102 147.092 100.102C144.241 100.102 141.93 102.463 141.93 105.374C141.93 108.286 144.241 110.646 147.092 110.646Z" fill="white"/>
<path d="M107.163 74.9169H94.0753V91.3096H107.163V74.9169Z" fill="white"/>
<path d="M94.0753 88.5866C93.0153 88.5866 91.9791 88.2656 91.0978 87.6642C90.2164 87.0627 89.5295 86.2078 89.1238 85.2076C88.7182 84.2074 88.612 83.1068 88.8188 82.045C89.0256 80.9832 89.5361 80.0079 90.2856 79.2424C91.0351 78.4769 91.9901 77.9555 93.0297 77.7443C94.0694 77.5331 95.147 77.6415 96.1263 78.0558C97.1056 78.4701 97.9426 79.1717 98.5315 80.0719C99.1204 80.972 99.4348 82.0303 99.4348 83.1129C99.4332 84.5641 98.868 85.9555 97.8633 86.9816C96.8585 88.0078 95.4962 88.585 94.0753 88.5866ZM94.0753 79.8814C93.4494 79.8814 92.8376 80.0709 92.3173 80.4261C91.7969 80.7812 91.3913 81.286 91.1518 81.8765C90.9123 82.4671 90.8496 83.1169 90.9718 83.7438C91.0939 84.3708 91.3953 84.9466 91.8379 85.3986C92.2804 85.8506 92.8443 86.1583 93.4582 86.283C94.072 86.4077 94.7083 86.3436 95.2865 86.099C95.8647 85.8543 96.3589 85.44 96.7065 84.9085C97.0542 84.377 97.2397 83.7521 97.2397 83.1129C97.2389 82.2561 96.9052 81.4345 96.3119 80.8287C95.7187 80.2228 94.9143 79.8821 94.0753 79.8814Z" fill="white"/>
<path d="M94.8301 85.5415C94.7108 85.2249 94.4863 84.9613 94.1958 84.7968C93.9052 84.6323 93.5673 84.5774 93.2412 84.6419C93.2474 84.6265 93.2507 84.6101 93.2509 84.5935L93.6899 84.393C93.9975 84.2595 94.2504 84.0215 94.4059 83.7193C94.5614 83.4172 94.6099 83.0695 94.5432 82.735C94.4971 82.5262 94.4062 82.3304 94.277 82.1618C94.1479 81.9932 93.9837 81.8559 93.7964 81.7599C93.609 81.664 93.4031 81.6116 93.1936 81.6067C92.984 81.6018 92.776 81.6445 92.5846 81.7316L91.5491 82.2046C91.5491 82.2005 91.5491 82.1963 91.5469 82.1921C91.5429 82.1836 91.5378 82.1757 91.5319 82.1684C91.787 81.972 91.9694 81.6932 92.0494 81.3773C92.1294 81.0614 92.1023 80.7272 91.9724 80.4291C91.6849 79.6345 90.6657 79.571 89.9918 79.8782L87.2844 80.9937L88.1016 80.1472C88.3576 79.8712 88.5015 79.5062 88.5041 79.1261C88.5068 78.7459 88.3681 78.3788 88.116 78.0991C87.9808 77.9594 87.8192 77.8493 87.6409 77.7755C87.4627 77.7017 87.2716 77.6658 87.0794 77.6699C86.8871 77.6741 86.6977 77.7182 86.5227 77.7996C86.3476 77.8809 86.1907 77.9979 86.0614 78.1433L76.4344 88.8813L79.727 92.1199C80.7494 93.1258 82.0426 93.797 83.441 94.0473C84.8393 94.2977 86.2789 94.1157 87.5754 93.5249L93.4431 90.8382C93.7507 90.7046 94.0037 90.4667 94.1592 90.1645C94.3147 89.8624 94.3632 89.5146 94.2964 89.1801C94.2298 88.8799 94.071 88.6092 93.8432 88.4076C93.6155 88.206 93.3306 88.0839 93.0301 88.0592C93.0335 88.0426 93.0335 88.0254 93.0303 88.0088C93.0271 87.9921 93.0207 87.9763 93.0114 87.9622C93.0022 87.9481 92.9903 87.936 92.9765 87.9267C92.9626 87.9173 92.9471 87.9109 92.9307 87.9077L94.0142 87.4138C94.3572 87.2655 94.6323 86.9897 94.7838 86.6421C94.9352 86.2945 94.9518 85.9011 94.8301 85.5415Z" fill="#E98862"/>
<path opacity="0.2" d="M89.5914 83.1132C89.5603 83.1134 89.5302 83.1024 89.5063 83.0823C89.4823 83.0621 89.466 83.034 89.4602 83.0029C89.4544 82.9717 89.4594 82.9395 89.4745 82.9117C89.4895 82.884 89.5136 82.8625 89.5425 82.8509L91.3738 82.1143C91.3901 82.1078 91.4074 82.1046 91.4249 82.1049C91.4423 82.1052 91.4595 82.109 91.4756 82.1161C91.4916 82.1232 91.5061 82.1335 91.5182 82.1463C91.5303 82.1591 91.5399 82.1743 91.5463 82.1909C91.5527 82.2075 91.5558 82.2252 91.5555 82.243C91.5552 82.2608 91.5515 82.2784 91.5445 82.2948C91.5376 82.3111 91.5275 82.3259 91.515 82.3383C91.5024 82.3507 91.4876 82.3605 91.4713 82.367L89.64 83.1036C89.6245 83.1099 89.608 83.1132 89.5914 83.1132Z" fill="#0C0C0C"/>
<path opacity="0.2" d="M90.6134 85.758C90.5825 85.7579 90.5527 85.7469 90.529 85.7269C90.5052 85.7068 90.489 85.6789 90.4832 85.648C90.4773 85.6171 90.4822 85.5851 90.4969 85.5574C90.5116 85.5298 90.5352 85.5082 90.5638 85.4964L93.0687 84.4673C93.101 84.4558 93.1364 84.4574 93.1676 84.4718C93.1988 84.4862 93.2233 84.5124 93.2361 84.5448C93.2489 84.5773 93.2489 84.6135 93.2362 84.6459C93.2234 84.6784 93.199 84.7046 93.1678 84.7191L90.6632 85.7484C90.6473 85.7547 90.6304 85.758 90.6134 85.758Z" fill="#0C0C0C"/>
<path opacity="0.2" d="M91.7059 88.6296C91.6747 88.6296 91.6446 88.6184 91.6207 88.598C91.5967 88.5777 91.5806 88.5493 91.575 88.518C91.5695 88.4867 91.5748 88.4544 91.5902 88.4268C91.6056 88.3991 91.63 88.3778 91.6592 88.3666L92.8533 87.909C92.8863 87.8962 92.9229 87.8974 92.9551 87.9123C92.9873 87.9271 93.0123 87.9544 93.0248 87.9881C93.0373 88.0218 93.0361 88.0592 93.0216 88.0921C93.0071 88.1249 92.9804 88.1505 92.9474 88.1633L91.7532 88.6209C91.7381 88.6267 91.722 88.6296 91.7059 88.6296Z" fill="#0C0C0C"/>
<path d="M97.6147 64.4898C97.557 64.4899 97.5003 64.4736 97.451 64.4429C97.4017 64.4122 97.3617 64.3681 97.3353 64.3156C96.6213 62.8939 95.7329 61.1241 95.8333 59.2688C95.9129 57.7933 96.5903 56.4824 97.2444 55.2164C97.6671 54.4511 98.0274 53.6516 98.3215 52.8259C98.6805 51.6865 98.771 50.4767 98.5857 49.2949C98.4005 48.1131 97.9446 46.9926 97.2554 46.0246C97.2296 45.9909 97.2106 45.9523 97.1997 45.911C97.1887 45.8696 97.186 45.8265 97.1917 45.7841C97.1973 45.7417 97.2113 45.7009 97.2326 45.6641C97.254 45.6273 97.2824 45.5952 97.3161 45.5698C97.3498 45.5443 97.3881 45.5261 97.4288 45.516C97.4696 45.506 97.5119 45.5044 97.5532 45.5113C97.5946 45.5182 97.6341 45.5336 97.6696 45.5564C97.705 45.5792 97.7356 45.6091 97.7596 45.6442C98.5083 46.6946 99.0037 47.9107 99.2053 49.1935C99.4069 50.4764 99.3091 51.7897 98.9199 53.0267C98.6153 53.8865 98.2412 54.719 97.8016 55.5155C97.1494 56.7771 96.5335 57.9685 96.4614 59.3043C96.3704 60.9861 97.1807 62.5999 97.8954 64.0235C97.9199 64.0723 97.9317 64.1267 97.9297 64.1815C97.9277 64.2363 97.9119 64.2897 97.8839 64.3365C97.856 64.3832 97.8167 64.4219 97.7699 64.4488C97.7231 64.4756 97.6703 64.4898 97.6166 64.4898H97.6147Z" fill="white"/>
<path d="M102.65 69.4886C102.58 69.4886 102.513 69.465 102.458 69.4215C102.403 69.378 102.364 69.3171 102.346 69.2484C102.329 69.1796 102.334 69.1069 102.362 69.0417C102.389 68.9765 102.437 68.9224 102.498 68.8881C103.66 68.2334 103.79 66.4114 103.244 65.0282C102.974 64.3924 102.657 63.7781 102.297 63.1905C101.815 62.429 101.423 61.612 101.13 60.7564C100.831 59.7133 100.812 58.607 101.076 57.5539C101.339 56.5008 101.876 55.5398 102.63 54.7718C102.689 54.7136 102.769 54.6818 102.852 54.6834C102.935 54.6851 103.013 54.72 103.071 54.7806C103.129 54.8412 103.16 54.9225 103.16 55.007C103.159 55.0914 103.125 55.1721 103.066 55.2314C102.395 55.9163 101.916 56.7733 101.681 57.7124C101.446 58.6514 101.462 59.6379 101.729 60.5681C102.008 61.3753 102.38 62.1459 102.836 62.8638C103.213 63.4788 103.544 64.1221 103.826 64.7883C104.465 66.4079 104.323 68.5915 102.801 69.4485C102.755 69.4746 102.703 69.4884 102.65 69.4886Z" fill="white"/>
<path d="M87.4725 97.4059L41.2973 116.923C39.6325 117.619 37.8052 117.805 36.0388 117.458C34.2723 117.11 32.6432 116.245 31.3504 114.967C30.0576 113.69 29.1572 112.055 28.7591 110.264C28.3611 108.472 28.4826 106.6 29.1089 104.878L42.8809 66.4604C44.6614 61.5642 49.6772 58.7487 54.4716 60.5675C56.7737 61.4408 58.6419 63.2123 59.6652 65.4924C60.6884 67.7725 60.7829 70.3743 59.9279 72.7256L53.6462 90.9089L80.7085 80.2532" fill="#16325B"/>
<path d="M87.3599 97.5802C87.3353 97.58 87.3113 97.5724 87.2909 97.5584C87.2705 97.5444 87.2546 97.5245 87.2451 97.5014L80.5266 80.463L53.555 91.094C53.5327 91.1029 53.5083 91.1049 53.4849 91.0998C53.4614 91.0948 53.44 91.0828 53.4231 91.0655C53.4062 91.0482 53.3946 91.0262 53.3897 91.0023C53.3849 90.9783 53.3869 90.9535 53.3957 90.9307L57.5663 79.9979C57.5782 79.9668 57.6017 79.9418 57.6317 79.9284C57.6617 79.9149 57.6956 79.9142 57.7261 79.9264C57.7566 79.9385 57.7811 79.9625 57.7942 79.9931C57.8074 80.0237 57.8081 80.0584 57.7962 80.0895L53.7271 90.7555L80.5514 80.1824C80.5816 80.1705 80.6153 80.1712 80.645 80.1844C80.6747 80.1976 80.6982 80.2222 80.7104 80.2529L87.4744 97.4069C87.4861 97.438 87.4856 97.4725 87.4728 97.5032C87.4601 97.5339 87.4361 97.5583 87.406 97.5712C87.3913 97.5771 87.3757 97.5802 87.3599 97.5802Z" fill="#0C0C0C"/>
<path d="M45.0841 94.477C45.0553 94.4773 45.0272 94.4672 45.0049 94.4485C44.9825 94.4297 44.9674 94.4036 44.962 94.3746C44.9566 94.3456 44.9614 94.3156 44.9754 94.2899C44.9895 94.2641 45.012 94.2442 45.039 94.2336L53.4866 90.8388C53.5018 90.8324 53.518 90.8292 53.5344 90.8293C53.5508 90.8294 53.567 90.8328 53.582 90.8394C53.5971 90.8459 53.6107 90.8555 53.6222 90.8675C53.6336 90.8794 53.6426 90.8936 53.6486 90.9092C53.6546 90.9247 53.6575 90.9414 53.6571 90.9581C53.6568 90.9748 53.6532 90.9913 53.6466 91.0066C53.6399 91.0219 53.6304 91.0357 53.6185 91.0472C53.6066 91.0587 53.5926 91.0676 53.5773 91.0735L45.1293 94.4684C45.1149 94.4741 45.0996 94.477 45.0841 94.477Z" fill="#0C0C0C"/>
<path d="M47.0516 114.644C47.0229 114.644 46.9952 114.634 46.973 114.616C46.9508 114.597 46.9357 114.571 46.9301 114.543C46.9245 114.514 46.9289 114.484 46.9425 114.459C46.9561 114.433 46.978 114.413 47.0045 114.402L87.3141 97.3377C87.3291 97.3314 87.3452 97.3282 87.3614 97.3282C87.3775 97.3282 87.3936 97.3315 87.4085 97.3378C87.4235 97.3442 87.4371 97.3535 87.4485 97.3652C87.4599 97.3769 87.469 97.3908 87.4752 97.4061C87.4814 97.4214 87.4845 97.4378 87.4845 97.4543C87.4845 97.4708 87.4813 97.4872 87.475 97.5025C87.4688 97.5178 87.4597 97.5316 87.4483 97.5433C87.4368 97.555 87.4232 97.5642 87.4082 97.5705L47.0986 114.635C47.0837 114.641 47.0677 114.644 47.0516 114.644Z" fill="#0C0C0C"/>
<path d="M251.7 217.343C251.617 217.343 251.537 217.309 251.478 217.249C251.036 216.798 250.316 208.519 248.376 183.869C247.582 173.783 246.833 164.257 246.286 158.467C246.246 158.054 246.09 158.005 246.038 157.99C245.289 157.759 243.011 159.593 241.74 161.199C241.687 161.265 241.612 161.308 241.529 161.317C241.446 161.326 241.363 161.301 241.299 161.247C241.234 161.194 241.193 161.116 241.184 161.032C241.175 160.947 241.199 160.863 241.252 160.797C242.093 159.735 244.833 156.95 246.218 157.376C246.498 157.462 246.845 157.71 246.91 158.405C247.458 164.2 248.207 173.729 249.001 183.818C250.18 198.797 251.516 215.767 251.954 216.835C251.988 216.883 252.008 216.94 252.012 216.998C252.017 217.057 252.005 217.116 251.979 217.169C251.953 217.221 251.913 217.265 251.863 217.296C251.814 217.326 251.757 217.343 251.7 217.343Z" fill="#494949"/>
<path d="M245.48 169.091C250.684 164.831 252.408 158.2 249.332 154.281C246.256 150.361 239.544 150.637 234.341 154.897C229.137 159.157 227.412 165.788 230.489 169.707C233.565 173.627 240.277 173.351 245.48 169.091Z" fill="#1F41BB"/>
<path opacity="0.2" d="M245.48 169.091C250.684 164.831 252.408 158.2 249.332 154.281C246.256 150.361 239.544 150.637 234.341 154.897C229.137 159.157 227.412 165.788 230.489 169.707C233.565 173.627 240.277 173.351 245.48 169.091Z" fill="white"/>
<path d="M231.947 170.705C231.917 170.705 231.888 170.696 231.863 170.68C231.838 170.663 231.818 170.64 231.805 170.612C231.793 170.585 231.788 170.554 231.792 170.524C231.795 170.494 231.808 170.465 231.827 170.442L246.656 152.177C246.669 152.161 246.685 152.147 246.704 152.137C246.722 152.127 246.742 152.12 246.763 152.118C246.784 152.116 246.805 152.118 246.824 152.124C246.844 152.13 246.863 152.141 246.879 152.154C246.895 152.168 246.908 152.185 246.918 152.203C246.927 152.222 246.933 152.243 246.935 152.264C246.937 152.285 246.934 152.307 246.928 152.327C246.921 152.347 246.911 152.366 246.897 152.382L232.068 170.647C232.053 170.665 232.035 170.679 232.014 170.689C231.993 170.699 231.97 170.705 231.947 170.705Z" fill="white"/>
<path d="M254.934 213.427C254.884 213.427 254.835 213.415 254.79 213.391C254.746 213.368 254.708 213.334 254.679 213.292C254.65 213.251 254.631 213.203 254.624 213.152C254.617 213.101 254.622 213.05 254.638 213.001L260.208 196.64C260.372 196.159 260.652 195.728 261.021 195.386C261.391 195.044 261.838 194.803 262.323 194.683C262.807 194.564 263.313 194.57 263.795 194.702C264.276 194.835 264.717 195.088 265.078 195.439L268.023 198.313C268.083 198.372 268.118 198.452 268.12 198.537C268.122 198.622 268.09 198.704 268.033 198.766C267.976 198.827 267.897 198.863 267.813 198.865C267.73 198.867 267.65 198.835 267.59 198.776L264.645 195.903C264.36 195.626 264.012 195.426 263.632 195.321C263.252 195.217 262.852 195.212 262.47 195.306C262.087 195.4 261.734 195.591 261.443 195.861C261.151 196.131 260.93 196.471 260.801 196.85L255.23 213.212C255.209 213.275 255.169 213.329 255.116 213.368C255.063 213.406 254.999 213.427 254.934 213.427Z" fill="#494949"/>
<path d="M276.251 207.372C280.108 204.254 279.878 197.398 275.739 192.057C271.6 186.716 265.119 184.914 261.263 188.032C257.406 191.149 257.635 198.006 261.774 203.347C265.913 208.687 272.395 210.489 276.251 207.372Z" fill="#1F41BB"/>
<path d="M249.169 216.299C249.099 216.299 249.03 216.275 248.975 216.23C248.92 216.186 248.881 216.123 248.864 216.053L239.516 176.134C239.452 175.861 239.316 175.613 239.123 175.414C238.93 175.216 238.686 175.076 238.42 175.01C238.154 174.944 237.875 174.954 237.614 175.039C237.353 175.124 237.12 175.281 236.941 175.493L234.059 178.894C234.032 178.926 234 178.952 233.963 178.971C233.926 178.99 233.886 179.001 233.845 179.004C233.804 179.007 233.762 179.002 233.723 178.988C233.684 178.975 233.648 178.954 233.617 178.927C233.586 178.899 233.56 178.866 233.542 178.828C233.523 178.79 233.512 178.749 233.509 178.707C233.506 178.665 233.511 178.623 233.524 178.583C233.537 178.543 233.558 178.507 233.585 178.475L236.467 175.074C236.722 174.773 237.053 174.551 237.423 174.43C237.794 174.309 238.19 174.295 238.568 174.39C238.946 174.484 239.292 174.683 239.566 174.964C239.841 175.246 240.034 175.599 240.125 175.986L249.473 215.906C249.492 215.988 249.479 216.075 249.435 216.148C249.392 216.22 249.322 216.272 249.241 216.292C249.217 216.297 249.193 216.3 249.169 216.299Z" fill="#494949"/>
<path d="M245.721 187.762C246.858 181.05 243.85 174.916 239.004 174.06C234.158 173.204 229.308 177.951 228.171 184.662C227.035 191.374 230.043 197.509 234.889 198.364C239.735 199.22 244.585 194.474 245.721 187.762Z" fill="#1F41BB"/>
<path d="M251.7 217.343C251.687 217.343 251.674 217.342 251.661 217.34C251.579 217.33 251.504 217.286 251.453 217.22C251.401 217.153 251.378 217.068 251.388 216.983L257.358 167.483C257.423 166.944 257.639 166.435 257.98 166.018C258.322 165.601 258.774 165.293 259.282 165.133C259.79 164.972 260.334 164.965 260.846 165.112C261.358 165.259 261.818 165.554 262.17 165.961L268.993 173.854C269.048 173.918 269.076 174.001 269.071 174.086C269.066 174.171 269.028 174.25 268.965 174.306C268.903 174.362 268.821 174.391 268.738 174.386C268.655 174.38 268.578 174.342 268.523 174.278L261.7 166.385C261.427 166.07 261.072 165.842 260.676 165.728C260.28 165.615 259.86 165.621 259.467 165.745C259.074 165.869 258.725 166.107 258.461 166.43C258.197 166.752 258.03 167.146 257.98 167.563L252.01 217.062C252.001 217.139 251.964 217.21 251.907 217.262C251.85 217.313 251.777 217.342 251.7 217.343Z" fill="#494949"/>
<path d="M275.989 178.239C278.37 173.844 275.569 167.608 269.733 164.311C263.898 161.015 257.237 161.905 254.857 166.301C252.476 170.696 255.277 176.932 261.113 180.229C266.948 183.525 273.609 182.635 275.989 178.239Z" fill="#1F41BB"/>
<path opacity="0.2" d="M276.251 207.372C280.108 204.254 279.878 197.398 275.739 192.057C271.6 186.716 265.119 184.914 261.263 188.032C257.406 191.149 257.635 198.006 261.774 203.347C265.913 208.687 272.395 210.489 276.251 207.372Z" fill="white"/>
<path opacity="0.5" d="M245.721 187.762C246.858 181.05 243.85 174.916 239.004 174.06C234.158 173.204 229.308 177.951 228.171 184.662C227.035 191.374 230.043 197.509 234.889 198.364C239.735 199.22 244.585 194.474 245.721 187.762Z" fill="white"/>
<path opacity="0.5" d="M275.989 178.239C278.37 173.844 275.569 167.608 269.733 164.311C263.898 161.015 257.237 161.905 254.857 166.301C252.476 170.696 255.277 176.932 261.113 180.229C266.948 183.525 273.609 182.635 275.989 178.239Z" fill="white"/>
<path d="M259.335 259.343H244.065L241.534 209.444H261.865L259.335 259.343Z" fill="#292A2E"/>
<path opacity="0.3" d="M259.335 259.343H244.065L241.534 209.444H261.865L259.335 259.343Z" fill="white"/>
<path d="M276.251 207.53C276.228 207.53 276.204 207.525 276.183 207.514C276.162 207.504 276.143 207.488 276.128 207.469L261.139 188.129C261.113 188.096 261.101 188.054 261.106 188.011C261.111 187.969 261.132 187.931 261.164 187.904C261.197 187.878 261.239 187.866 261.28 187.871C261.321 187.876 261.359 187.897 261.385 187.93L276.374 207.27C276.392 207.294 276.404 207.322 276.407 207.352C276.41 207.382 276.405 207.412 276.393 207.439C276.38 207.466 276.36 207.489 276.335 207.505C276.31 207.521 276.281 207.53 276.251 207.53Z" fill="white"/>
<path d="M274.993 179.789C274.959 179.789 274.927 179.778 274.901 179.757L255.72 165.454C255.703 165.442 255.689 165.426 255.678 165.408C255.667 165.39 255.66 165.37 255.657 165.349C255.654 165.329 255.655 165.307 255.66 165.287C255.664 165.266 255.673 165.247 255.685 165.23C255.698 165.213 255.713 165.199 255.73 165.188C255.748 165.177 255.768 165.17 255.788 165.166C255.808 165.163 255.829 165.164 255.849 165.169C255.869 165.174 255.888 165.183 255.905 165.195L275.085 179.5C275.111 179.52 275.131 179.548 275.141 179.58C275.151 179.611 275.15 179.646 275.14 179.678C275.13 179.709 275.11 179.737 275.084 179.757C275.057 179.777 275.025 179.787 274.993 179.788V179.789Z" fill="white"/>
<path d="M234.109 198.156C234.096 198.156 234.082 198.154 234.069 198.151C234.029 198.14 233.994 198.113 233.974 198.076C233.953 198.039 233.947 197.996 233.958 197.954L240.064 174.59C240.069 174.569 240.078 174.55 240.09 174.533C240.103 174.516 240.118 174.501 240.136 174.491C240.154 174.48 240.174 174.473 240.195 174.47C240.215 174.467 240.236 174.468 240.256 174.474C240.277 174.479 240.295 174.489 240.312 174.502C240.328 174.515 240.342 174.531 240.352 174.55C240.363 174.568 240.369 174.588 240.372 174.61C240.374 174.631 240.373 174.652 240.367 174.672L234.261 198.037C234.252 198.071 234.232 198.101 234.205 198.123C234.177 198.144 234.144 198.156 234.109 198.156Z" fill="white"/>
</g>
<defs>
<clipPath id="clip0_1_6">
<rect width="274" height="276" fill="white" transform="translate(5 0.5)"/>
</clipPath>
</defs>
</svg>
